<svg xmlns="http://www.w3.org/2000/svg" xmlns:xlink="http://www.w3.org/1999/xlink" width="78" height="140" viewBox="0 0 78 140">
  <defs>
    <clipPath id="clip-path">
      <rect id="Rectangle_28" data-name="Rectangle 28" width="78" height="140" transform="translate(1842 1444)" fill="#fff"/>
    </clipPath>
  </defs>
  <g id="Mask_Group_5" data-name="Mask Group 5" transform="translate(-1842 -1444)" clip-path="url(#clip-path)">
    <g id="Group_37" data-name="Group 37" transform="translate(1353.971 1287.995)">
      <path id="Path_74" data-name="Path 74" d="M606.326,237.148a.607.607,0,1,0,0,.858A.608.608,0,0,0,606.326,237.148Z" transform="translate(9.819 6.313)" fill="#f55c18" stroke="#f55c18" stroke-miterlimit="10" stroke-width="2"/>
      <circle id="Ellipse_26" data-name="Ellipse 26" cx="0.607" cy="0.607" r="0.607" transform="translate(606.532 260.438)" fill="#f55c18" stroke="#f55c18" stroke-miterlimit="10" stroke-width="2"/>
      <circle id="Ellipse_27" data-name="Ellipse 27" cx="0.607" cy="0.607" r="0.607" transform="translate(606.532 251.861)" fill="#f55c18" stroke="#f55c18" stroke-miterlimit="10" stroke-width="2"/>
      <path id="Path_75" data-name="Path 75" d="M582.7,269.51a.606.606,0,1,0-.857,0A.608.608,0,0,0,582.7,269.51Z" transform="translate(7.715 9.118)" fill="#f55c18" stroke="#f55c18" stroke-miterlimit="10" stroke-width="2"/>
      <path id="Path_76" data-name="Path 76" d="M589.716,260.775a.607.607,0,1,0,.858,0A.608.608,0,0,0,589.716,260.775Z" transform="translate(8.417 8.417)" fill="#f55c18" stroke="#f55c18" stroke-miterlimit="10" stroke-width="2"/>
      <path id="Path_77" data-name="Path 77" d="M566.947,276.528a.607.607,0,0,0-.858.858.593.593,0,0,0,.318.156c.177-.049.354-.1.53-.15l.01-.005A.608.608,0,0,0,566.947,276.528Z" transform="translate(6.313 9.82)" fill="#f55c18" stroke="#f55c18" stroke-miterlimit="10" stroke-width="2"/>
      <path id="Path_78" data-name="Path 78" d="M605.468,221.4a.606.606,0,1,0,.858,0A.6.6,0,0,0,605.468,221.4Z" transform="translate(9.819 4.91)" fill="#f55c18" stroke="#f55c18" stroke-miterlimit="10" stroke-width="2"/>
      <path id="Path_79" data-name="Path 79" d="M606.326,230.131a.607.607,0,1,0-.858,0A.608.608,0,0,0,606.326,230.131Z" transform="translate(9.819 5.611)" fill="#f55c18" stroke="#f55c18" stroke-miterlimit="10" stroke-width="2"/>
      <circle id="Ellipse_28" data-name="Ellipse 28" cx="0.607" cy="0.607" r="0.607" transform="translate(606.532 226.129)" fill="#f55c18" stroke="#f55c18" stroke-miterlimit="10" stroke-width="2"/>
      <path id="Path_80" data-name="Path 80" d="M605.468,213.522a.607.607,0,1,0,.858,0A.606.606,0,0,0,605.468,213.522Z" transform="translate(9.819 4.208)" fill="#f55c18" stroke="#f55c18" stroke-miterlimit="10" stroke-width="2"/>
      <circle id="Ellipse_29" data-name="Ellipse 29" cx="0.607" cy="0.607" r="0.607" transform="translate(597.955 226.129)" fill="#f55c18" stroke="#f55c18" stroke-miterlimit="10" stroke-width="2"/>
      <path id="Path_81" data-name="Path 81" d="M582.7,245.025a.606.606,0,1,0,0,.858A.606.606,0,0,0,582.7,245.025Z" transform="translate(7.715 7.014)" fill="#f55c18" stroke="#f55c18" stroke-miterlimit="10" stroke-width="2"/>
      <circle id="Ellipse_30" data-name="Ellipse 30" cx="0.607" cy="0.607" r="0.607" transform="translate(597.955 243.283)" fill="#f55c18" stroke="#f55c18" stroke-miterlimit="10" stroke-width="2"/>
      <circle id="Ellipse_31" data-name="Ellipse 31" cx="0.607" cy="0.607" r="0.607" transform="translate(597.955 251.861)" fill="#f55c18" stroke="#f55c18" stroke-miterlimit="10" stroke-width="2"/>
      <path id="Path_82" data-name="Path 82" d="M581.841,238.007a.606.606,0,1,0,0-.858A.607.607,0,0,0,581.841,238.007Z" transform="translate(7.715 6.313)" fill="#f55c18" stroke="#f55c18" stroke-miterlimit="10" stroke-width="2"/>
      <circle id="Ellipse_32" data-name="Ellipse 32" cx="0.607" cy="0.607" r="0.607" transform="translate(606.532 243.283)" fill="#f55c18" stroke="#f55c18" stroke-miterlimit="10" stroke-width="2"/>
      <circle id="Ellipse_33" data-name="Ellipse 33" cx="0.607" cy="0.607" r="0.607" transform="translate(597.955 234.706)" fill="#f55c18" stroke="#f55c18" stroke-miterlimit="10" stroke-width="2"/>
      <circle id="Ellipse_34" data-name="Ellipse 34" cx="0.607" cy="0.607" r="0.607" transform="translate(580.801 243.283)" fill="#f55c18" stroke="#f55c18" stroke-miterlimit="10" stroke-width="2"/>
      <circle id="Ellipse_35" data-name="Ellipse 35" cx="0.607" cy="0.607" r="0.607" transform="translate(606.532 234.706)" fill="#f55c18" stroke="#f55c18" stroke-miterlimit="10" stroke-width="2"/>
      <path id="Path_83" data-name="Path 83" d="M566.947,260.775a.607.607,0,1,0,0,.858A.608.608,0,0,0,566.947,260.775Z" transform="translate(6.313 8.417)" fill="#f55c18" stroke="#f55c18" stroke-miterlimit="10" stroke-width="2"/>
      <circle id="Ellipse_36" data-name="Ellipse 36" cx="0.607" cy="0.607" r="0.607" transform="translate(580.801 260.438)" fill="#f55c18" stroke="#f55c18" stroke-miterlimit="10" stroke-width="2"/>
      <path id="Path_84" data-name="Path 84" d="M581.841,261.634a.606.606,0,1,0,0-.858A.606.606,0,0,0,581.841,261.634Z" transform="translate(7.715 8.417)" fill="#f55c18" stroke="#f55c18" stroke-miterlimit="10" stroke-width="2"/>
      <path id="Path_85" data-name="Path 85" d="M574.822,260.775a.606.606,0,1,0,0,.858A.607.607,0,0,0,574.822,260.775Z" transform="translate(7.014 8.417)" fill="#f55c18" stroke="#f55c18" stroke-miterlimit="10" stroke-width="2"/>
      <path id="Path_86" data-name="Path 86" d="M566.947,253.758a.606.606,0,1,0-.858,0A.607.607,0,0,0,566.947,253.758Z" transform="translate(6.313 7.715)" fill="#f55c18" stroke="#f55c18" stroke-miterlimit="10" stroke-width="2"/>
      <path id="Path_87" data-name="Path 87" d="M582.7,252.9a.606.606,0,1,0,0,.857A.6.6,0,0,0,582.7,252.9Z" transform="translate(7.715 7.715)" fill="#f55c18" stroke="#f55c18" stroke-miterlimit="10" stroke-width="2"/>
      <circle id="Ellipse_37" data-name="Ellipse 37" cx="0.607" cy="0.607" r="0.607" transform="translate(580.801 251.861)" fill="#f55c18" stroke="#f55c18" stroke-miterlimit="10" stroke-width="2"/>
      <circle id="Ellipse_38" data-name="Ellipse 38" cx="0.607" cy="0.607" r="0.607" transform="translate(563.646 260.438)" fill="#f55c18" stroke="#f55c18" stroke-miterlimit="10" stroke-width="2"/>
      <circle id="Ellipse_39" data-name="Ellipse 39" cx="0.607" cy="0.607" r="0.607" transform="translate(597.955 260.438)" fill="#f55c18" stroke="#f55c18" stroke-miterlimit="10" stroke-width="2"/>
      <circle id="Ellipse_40" data-name="Ellipse 40" cx="0.607" cy="0.607" r="0.607" transform="translate(563.646 277.592)" fill="#f55c18" stroke="#f55c18" stroke-miterlimit="10" stroke-width="2"/>
      <path id="Path_88" data-name="Path 88" d="M558.212,277.386a.607.607,0,1,0,0-.858A.608.608,0,0,0,558.212,277.386Z" transform="translate(5.611 9.82)" fill="#f55c18" stroke="#f55c18" stroke-miterlimit="10" stroke-width="2"/>
      <circle id="Ellipse_41" data-name="Ellipse 41" cx="0.607" cy="0.607" r="0.607" transform="translate(555.069 277.592)" fill="#f55c18" stroke="#f55c18" stroke-miterlimit="10" stroke-width="2"/>
      <path id="Path_89" data-name="Path 89" d="M566.089,268.651a.607.607,0,1,0,.858,0A.606.606,0,0,0,566.089,268.651Z" transform="translate(6.313 9.118)" fill="#f55c18" stroke="#f55c18" stroke-miterlimit="10" stroke-width="2"/>
      <path id="Path_90" data-name="Path 90" d="M559.071,260.775a.607.607,0,1,0,0,.858A.608.608,0,0,0,559.071,260.775Z" transform="translate(5.611 8.417)" fill="#f55c18" stroke="#f55c18" stroke-miterlimit="10" stroke-width="2"/>
      <path id="Path_91" data-name="Path 91" d="M543.319,268.651a.606.606,0,1,0,0,.858A.607.607,0,0,0,543.319,268.651Z" transform="translate(4.208 9.118)" fill="#f55c18" stroke="#f55c18" stroke-miterlimit="10" stroke-width="2"/>
      <path id="Path_92" data-name="Path 92" d="M551.195,260.775a.607.607,0,1,0,0,.858A.608.608,0,0,0,551.195,260.775Z" transform="translate(4.91 8.417)" fill="#f55c18" stroke="#f55c18" stroke-miterlimit="10" stroke-width="2"/>
      <circle id="Ellipse_42" data-name="Ellipse 42" cx="0.607" cy="0.607" r="0.607" transform="translate(580.801 277.592)" fill="#f55c18" stroke="#f55c18" stroke-miterlimit="10" stroke-width="2"/>
      <path id="Path_93" data-name="Path 93" d="M542.462,276.528a.606.606,0,1,0,.857,0A.606.606,0,0,0,542.462,276.528Z" transform="translate(4.208 9.82)" fill="#f55c18" stroke="#f55c18" stroke-miterlimit="10" stroke-width="2"/>
      <path id="Path_94" data-name="Path 94" d="M535.444,276.528a.607.607,0,1,0,0,.858A.607.607,0,0,0,535.444,276.528Z" transform="translate(3.507 9.82)" fill="#f55c18" stroke="#f55c18" stroke-miterlimit="10" stroke-width="2"/>
      <path id="Path_95" data-name="Path 95" d="M550.336,277.386a.607.607,0,1,0,0-.858A.608.608,0,0,0,550.336,277.386Z" transform="translate(4.91 9.82)" fill="#f55c18" stroke="#f55c18" stroke-miterlimit="10" stroke-width="2"/>
      <path id="Path_96" data-name="Path 96" d="M598.45,197.77a.607.607,0,1,0,0,.858A.608.608,0,0,0,598.45,197.77Z" transform="translate(9.118 2.806)" fill="#f55c18" stroke="#f55c18" stroke-miterlimit="10" stroke-width="2"/>
      <path id="Path_97" data-name="Path 97" d="M598.45,190.752a.606.606,0,1,0-.858,0A.607.607,0,0,0,598.45,190.752Z" transform="translate(9.118 2.104)" fill="#f55c18" stroke="#f55c18" stroke-miterlimit="10" stroke-width="2"/>
      <circle id="Ellipse_43" data-name="Ellipse 43" cx="0.607" cy="0.607" r="0.607" transform="translate(597.955 208.975)" fill="#f55c18" stroke="#f55c18" stroke-miterlimit="10" stroke-width="2"/>
      <path id="Path_98" data-name="Path 98" d="M597.592,214.38a.607.607,0,1,0,0-.858A.608.608,0,0,0,597.592,214.38Z" transform="translate(9.118 4.208)" fill="#f55c18" stroke="#f55c18" stroke-miterlimit="10" stroke-width="2"/>
      <path id="Path_99" data-name="Path 99" d="M589.716,214.38a.607.607,0,1,0,0-.858A.608.608,0,0,0,589.716,214.38Z" transform="translate(8.417 4.208)" fill="#f55c18" stroke="#f55c18" stroke-miterlimit="10" stroke-width="2"/>
      <path id="Path_100" data-name="Path 100" d="M581.841,206.5a.606.606,0,1,0,0-.858A.607.607,0,0,0,581.841,206.5Z" transform="translate(7.715 3.507)" fill="#f55c18" stroke="#f55c18" stroke-miterlimit="10" stroke-width="2"/>
      <circle id="Ellipse_44" data-name="Ellipse 44" cx="0.607" cy="0.607" r="0.607" transform="translate(606.532 208.975)" fill="#f55c18" stroke="#f55c18" stroke-miterlimit="10" stroke-width="2"/>
      <path id="Path_101" data-name="Path 101" d="M589.716,198.628a.607.607,0,1,0,0-.858A.607.607,0,0,0,589.716,198.628Z" transform="translate(8.417 2.806)" fill="#f55c18" stroke="#f55c18" stroke-miterlimit="10" stroke-width="2"/>
      <path id="Path_102" data-name="Path 102" d="M605.468,206.5a.607.607,0,1,0,0-.858A.608.608,0,0,0,605.468,206.5Z" transform="translate(9.819 3.507)" fill="#f55c18" stroke="#f55c18" stroke-miterlimit="10" stroke-width="2"/>
      <path id="Path_103" data-name="Path 103" d="M566.947,229.272a.607.607,0,1,0,0,.858A.608.608,0,0,0,566.947,229.272Z" transform="translate(6.313 5.611)" fill="#f55c18" stroke="#f55c18" stroke-miterlimit="10" stroke-width="2"/>
      <circle id="Ellipse_45" data-name="Ellipse 45" cx="0.607" cy="0.607" r="0.607" transform="translate(580.801 226.129)" fill="#f55c18" stroke="#f55c18" stroke-miterlimit="10" stroke-width="2"/>
      <path id="Path_104" data-name="Path 104" d="M581.841,230.131a.606.606,0,1,0,0-.858A.606.606,0,0,0,581.841,230.131Z" transform="translate(7.715 5.611)" fill="#f55c18" stroke="#f55c18" stroke-miterlimit="10" stroke-width="2"/>
      <circle id="Ellipse_46" data-name="Ellipse 46" cx="0.607" cy="0.607" r="0.607" transform="translate(580.801 234.706)" fill="#f55c18" stroke="#f55c18" stroke-miterlimit="10" stroke-width="2"/>
      <path id="Path_105" data-name="Path 105" d="M566.089,222.255a.606.606,0,1,0,0-.857A.606.606,0,0,0,566.089,222.255Z" transform="translate(6.313 4.91)" fill="#f55c18" stroke="#f55c18" stroke-miterlimit="10" stroke-width="2"/>
      <path id="Path_106" data-name="Path 106" d="M582.7,221.4a.606.606,0,1,0,0,.857A.6.6,0,0,0,582.7,221.4Z" transform="translate(7.715 4.91)" fill="#f55c18" stroke="#f55c18" stroke-miterlimit="10" stroke-width="2"/>
      <path id="Path_107" data-name="Path 107" d="M573.965,214.38a.606.606,0,1,0,0-.858A.607.607,0,0,0,573.965,214.38Z" transform="translate(7.014 4.208)" fill="#f55c18" stroke="#f55c18" stroke-miterlimit="10" stroke-width="2"/>
      <circle id="Ellipse_47" data-name="Ellipse 47" cx="0.607" cy="0.607" r="0.607" transform="translate(563.646 226.129)" fill="#f55c18" stroke="#f55c18" stroke-miterlimit="10" stroke-width="2"/>
      <path id="Path_108" data-name="Path 108" d="M581.841,214.38a.606.606,0,1,0,0-.858A.607.607,0,0,0,581.841,214.38Z" transform="translate(7.715 4.208)" fill="#f55c18" stroke="#f55c18" stroke-miterlimit="10" stroke-width="2"/>
      <circle id="Ellipse_48" data-name="Ellipse 48" cx="0.607" cy="0.607" r="0.607" transform="translate(555.069 251.861)" fill="#f55c18" stroke="#f55c18" stroke-miterlimit="10" stroke-width="2"/>
      <circle id="Ellipse_49" data-name="Ellipse 49" cx="0.607" cy="0.607" r="0.607" transform="translate(563.646 243.283)" fill="#f55c18" stroke="#f55c18" stroke-miterlimit="10" stroke-width="2"/>
      <path id="Path_109" data-name="Path 109" d="M566.089,245.883a.607.607,0,1,0,0-.858A.608.608,0,0,0,566.089,245.883Z" transform="translate(6.313 7.014)" fill="#f55c18" stroke="#f55c18" stroke-miterlimit="10" stroke-width="2"/>
      <circle id="Ellipse_50" data-name="Ellipse 50" cx="0.607" cy="0.607" r="0.607" transform="translate(563.646 251.861)" fill="#f55c18" stroke="#f55c18" stroke-miterlimit="10" stroke-width="2"/>
      <circle id="Ellipse_51" data-name="Ellipse 51" cx="0.607" cy="0.607" r="0.607" transform="translate(555.069 243.283)" fill="#f55c18" stroke="#f55c18" stroke-miterlimit="10" stroke-width="2"/>
      <path id="Path_110" data-name="Path 110" d="M566.947,237.148a.607.607,0,1,0,0,.858A.608.608,0,0,0,566.947,237.148Z" transform="translate(6.313 6.313)" fill="#f55c18" stroke="#f55c18" stroke-miterlimit="10" stroke-width="2"/>
      <circle id="Ellipse_52" data-name="Ellipse 52" cx="0.607" cy="0.607" r="0.607" transform="translate(563.646 234.706)" fill="#f55c18" stroke="#f55c18" stroke-miterlimit="10" stroke-width="2"/>
      <path id="Path_111" data-name="Path 111" d="M543.319,237.148a.606.606,0,1,0,0,.858A.607.607,0,0,0,543.319,237.148Z" transform="translate(4.208 6.313)" fill="#f55c18" stroke="#f55c18" stroke-miterlimit="10" stroke-width="2"/>
      <circle id="Ellipse_53" data-name="Ellipse 53" cx="0.607" cy="0.607" r="0.607" transform="translate(555.069 234.706)" fill="#f55c18" stroke="#f55c18" stroke-miterlimit="10" stroke-width="2"/>
      <path id="Path_112" data-name="Path 112" d="M535.444,260.775a.607.607,0,1,0,0,.858A.608.608,0,0,0,535.444,260.775Z" transform="translate(3.507 8.417)" fill="#f55c18" stroke="#f55c18" stroke-miterlimit="10" stroke-width="2"/>
      <path id="Path_113" data-name="Path 113" d="M543.319,252.9a.606.606,0,1,0,0,.857A.6.6,0,0,0,543.319,252.9Z" transform="translate(4.208 7.715)" fill="#f55c18" stroke="#f55c18" stroke-miterlimit="10" stroke-width="2"/>
      <path id="Path_114" data-name="Path 114" d="M543.319,260.775a.606.606,0,1,0,0,.858A.607.607,0,0,0,543.319,260.775Z" transform="translate(4.208 8.417)" fill="#f55c18" stroke="#f55c18" stroke-miterlimit="10" stroke-width="2"/>
      <circle id="Ellipse_54" data-name="Ellipse 54" cx="0.607" cy="0.607" r="0.607" transform="translate(537.915 260.438)" fill="#f55c18" stroke="#f55c18" stroke-miterlimit="10" stroke-width="2"/>
      <circle id="Ellipse_55" data-name="Ellipse 55" cx="0.607" cy="0.607" r="0.607" transform="translate(555.069 260.438)" fill="#f55c18" stroke="#f55c18" stroke-miterlimit="10" stroke-width="2"/>
      <path id="Path_115" data-name="Path 115" d="M543.319,245.025a.606.606,0,1,0,0,.858A.606.606,0,0,0,543.319,245.025Z" transform="translate(4.208 7.014)" fill="#f55c18" stroke="#f55c18" stroke-miterlimit="10" stroke-width="2"/>
      <circle id="Ellipse_56" data-name="Ellipse 56" cx="0.607" cy="0.607" r="0.607" transform="translate(529.338 260.438)" fill="#f55c18" stroke="#f55c18" stroke-miterlimit="10" stroke-width="2"/>
      <circle id="Ellipse_57" data-name="Ellipse 57" cx="0.607" cy="0.607" r="0.607" transform="translate(537.915 251.861)" fill="#f55c18" stroke="#f55c18" stroke-miterlimit="10" stroke-width="2"/>
      <circle id="Ellipse_58" data-name="Ellipse 58" cx="0.607" cy="0.607" r="0.607" transform="translate(529.338 277.592)" fill="#f55c18" stroke="#f55c18" stroke-miterlimit="10" stroke-width="2"/>
      <circle id="Ellipse_59" data-name="Ellipse 59" cx="0.607" cy="0.607" r="0.607" transform="translate(520.76 277.592)" fill="#f55c18" stroke="#f55c18" stroke-miterlimit="10" stroke-width="2"/>
      <circle id="Ellipse_60" data-name="Ellipse 60" cx="0.607" cy="0.607" r="0.607" transform="translate(537.915 277.592)" fill="#f55c18" stroke="#f55c18" stroke-miterlimit="10" stroke-width="2"/>
      <path id="Path_116" data-name="Path 116" d="M527.568,260.775a.607.607,0,1,0,0,.858A.608.608,0,0,0,527.568,260.775Z" transform="translate(2.806 8.417)" fill="#f55c18" stroke="#f55c18" stroke-miterlimit="10" stroke-width="2"/>
      <path id="Path_117" data-name="Path 117" d="M519.692,260.775a.607.607,0,1,0,0,.858A.608.608,0,0,0,519.692,260.775Z" transform="translate(2.104 8.417)" fill="#f55c18" stroke="#f55c18" stroke-miterlimit="10" stroke-width="2"/>
      <path id="Path_118" data-name="Path 118" d="M582.7,182.019a.606.606,0,1,0,0,.858A.606.606,0,0,0,582.7,182.019Z" transform="translate(7.715 1.403)" fill="#f55c18" stroke="#f55c18" stroke-miterlimit="10" stroke-width="2"/>
      <circle id="Ellipse_61" data-name="Ellipse 61" cx="0.607" cy="0.607" r="0.607" transform="translate(597.955 183.243)" fill="#f55c18" stroke="#f55c18" stroke-miterlimit="10" stroke-width="2"/>
      <path id="Path_119" data-name="Path 119" d="M582.7,175a.606.606,0,1,0-.857,0A.608.608,0,0,0,582.7,175Z" transform="translate(7.715 0.701)" fill="#f55c18" stroke="#f55c18" stroke-miterlimit="10" stroke-width="2"/>
      <path id="Path_120" data-name="Path 120" d="M574.822,174.143a.606.606,0,1,0,0,.858A.606.606,0,0,0,574.822,174.143Z" transform="translate(7.014 0.701)" fill="#f55c18" stroke="#f55c18" stroke-miterlimit="10" stroke-width="2"/>
      <path id="Path_121" data-name="Path 121" d="M573.965,190.752a.606.606,0,1,0,0-.857A.6.6,0,0,0,573.965,190.752Z" transform="translate(7.014 2.104)" fill="#f55c18" stroke="#f55c18" stroke-miterlimit="10" stroke-width="2"/>
      <path id="Path_122" data-name="Path 122" d="M581.841,198.628a.606.606,0,1,0,0-.858A.606.606,0,0,0,581.841,198.628Z" transform="translate(7.715 2.806)" fill="#f55c18" stroke="#f55c18" stroke-miterlimit="10" stroke-width="2"/>
      <path id="Path_123" data-name="Path 123" d="M573.965,198.628a.606.606,0,1,0,0-.858A.606.606,0,0,0,573.965,198.628Z" transform="translate(7.014 2.806)" fill="#f55c18" stroke="#f55c18" stroke-miterlimit="10" stroke-width="2"/>
      <path id="Path_124" data-name="Path 124" d="M566.089,190.752a.606.606,0,1,0,0-.857A.606.606,0,0,0,566.089,190.752Z" transform="translate(6.313 2.104)" fill="#f55c18" stroke="#f55c18" stroke-miterlimit="10" stroke-width="2"/>
      <path id="Path_125" data-name="Path 125" d="M581.841,190.752a.606.606,0,1,0,0-.857A.6.6,0,0,0,581.841,190.752Z" transform="translate(7.715 2.104)" fill="#f55c18" stroke="#f55c18" stroke-miterlimit="10" stroke-width="2"/>
      <circle id="Ellipse_62" data-name="Ellipse 62" cx="0.607" cy="0.607" r="0.607" transform="translate(580.801 183.243)" fill="#f55c18" stroke="#f55c18" stroke-miterlimit="10" stroke-width="2"/>
      <path id="Path_126" data-name="Path 126" d="M589.716,190.752a.606.606,0,1,0,0-.857A.606.606,0,0,0,589.716,190.752Z" transform="translate(8.417 2.104)" fill="#f55c18" stroke="#f55c18" stroke-miterlimit="10" stroke-width="2"/>
      <path id="Path_127" data-name="Path 127" d="M551.195,213.522a.607.607,0,1,0,0,.858A.607.607,0,0,0,551.195,213.522Z" transform="translate(4.91 4.208)" fill="#f55c18" stroke="#f55c18" stroke-miterlimit="10" stroke-width="2"/>
      <circle id="Ellipse_63" data-name="Ellipse 63" cx="0.607" cy="0.607" r="0.607" transform="translate(563.646 208.975)" fill="#f55c18" stroke="#f55c18" stroke-miterlimit="10" stroke-width="2"/>
      <path id="Path_128" data-name="Path 128" d="M566.089,214.38a.607.607,0,1,0,0-.858A.608.608,0,0,0,566.089,214.38Z" transform="translate(6.313 4.208)" fill="#f55c18" stroke="#f55c18" stroke-miterlimit="10" stroke-width="2"/>
      <path id="Path_129" data-name="Path 129" d="M558.212,214.38a.607.607,0,1,0,0-.858A.608.608,0,0,0,558.212,214.38Z" transform="translate(5.611 4.208)" fill="#f55c18" stroke="#f55c18" stroke-miterlimit="10" stroke-width="2"/>
      <circle id="Ellipse_64" data-name="Ellipse 64" cx="0.607" cy="0.607" r="0.607" transform="translate(555.069 208.975)" fill="#f55c18" stroke="#f55c18" stroke-miterlimit="10" stroke-width="2"/>
      <path id="Path_130" data-name="Path 130" d="M566.089,206.5a.607.607,0,1,0,0-.858A.608.608,0,0,0,566.089,206.5Z" transform="translate(6.313 3.507)" fill="#f55c18" stroke="#f55c18" stroke-miterlimit="10" stroke-width="2"/>
      <path id="Path_131" data-name="Path 131" d="M558.212,198.628a.607.607,0,1,0,0-.858A.607.607,0,0,0,558.212,198.628Z" transform="translate(5.611 2.806)" fill="#f55c18" stroke="#f55c18" stroke-miterlimit="10" stroke-width="2"/>
      <path id="Path_132" data-name="Path 132" d="M551.195,197.77a.607.607,0,1,0,0,.858A.608.608,0,0,0,551.195,197.77Z" transform="translate(4.91 2.806)" fill="#f55c18" stroke="#f55c18" stroke-miterlimit="10" stroke-width="2"/>
      <path id="Path_133" data-name="Path 133" d="M566.089,198.628a.607.607,0,1,0,0-.858A.607.607,0,0,0,566.089,198.628Z" transform="translate(6.313 2.806)" fill="#f55c18" stroke="#f55c18" stroke-miterlimit="10" stroke-width="2"/>
      <circle id="Ellipse_65" data-name="Ellipse 65" cx="0.607" cy="0.607" r="0.607" transform="translate(580.801 208.975)" fill="#f55c18" stroke="#f55c18" stroke-miterlimit="10" stroke-width="2"/>
      <circle id="Ellipse_66" data-name="Ellipse 66" cx="0.607" cy="0.607" r="0.607" transform="translate(537.915 234.706)" fill="#f55c18" stroke="#f55c18" stroke-miterlimit="10" stroke-width="2"/>
      <path id="Path_134" data-name="Path 134" d="M543.319,221.4a.606.606,0,1,0,0,.857A.6.6,0,0,0,543.319,221.4Z" transform="translate(4.208 4.91)" fill="#f55c18" stroke="#f55c18" stroke-miterlimit="10" stroke-width="2"/>
      <path id="Path_135" data-name="Path 135" d="M543.319,229.272a.606.606,0,1,0,0,.858A.607.607,0,0,0,543.319,229.272Z" transform="translate(4.208 5.611)" fill="#f55c18" stroke="#f55c18" stroke-miterlimit="10" stroke-width="2"/>
      <circle id="Ellipse_67" data-name="Ellipse 67" cx="0.607" cy="0.607" r="0.607" transform="translate(537.915 226.129)" fill="#f55c18" stroke="#f55c18" stroke-miterlimit="10" stroke-width="2"/>
      <circle id="Ellipse_68" data-name="Ellipse 68" cx="0.607" cy="0.607" r="0.607" transform="translate(555.069 226.129)" fill="#f55c18" stroke="#f55c18" stroke-miterlimit="10" stroke-width="2"/>
      <path id="Path_136" data-name="Path 136" d="M543.319,213.522a.606.606,0,1,0,0,.858A.606.606,0,0,0,543.319,213.522Z" transform="translate(4.208 4.208)" fill="#f55c18" stroke="#f55c18" stroke-miterlimit="10" stroke-width="2"/>
      <circle id="Ellipse_69" data-name="Ellipse 69" cx="0.607" cy="0.607" r="0.607" transform="translate(529.338 226.129)" fill="#f55c18" stroke="#f55c18" stroke-miterlimit="10" stroke-width="2"/>
      <path id="Path_137" data-name="Path 137" d="M535.444,213.522a.607.607,0,1,0,0,.858A.607.607,0,0,0,535.444,213.522Z" transform="translate(3.507 4.208)" fill="#f55c18" stroke="#f55c18" stroke-miterlimit="10" stroke-width="2"/>
      <circle id="Ellipse_70" data-name="Ellipse 70" cx="0.607" cy="0.607" r="0.607" transform="translate(520.76 251.861)" fill="#f55c18" stroke="#f55c18" stroke-miterlimit="10" stroke-width="2"/>
      <circle id="Ellipse_71" data-name="Ellipse 71" cx="0.607" cy="0.607" r="0.607" transform="translate(529.338 243.283)" fill="#f55c18" stroke="#f55c18" stroke-miterlimit="10" stroke-width="2"/>
      <circle id="Ellipse_72" data-name="Ellipse 72" cx="0.607" cy="0.607" r="0.607" transform="translate(529.338 251.861)" fill="#f55c18" stroke="#f55c18" stroke-miterlimit="10" stroke-width="2"/>
      <circle id="Ellipse_73" data-name="Ellipse 73" cx="0.607" cy="0.607" r="0.607" transform="translate(520.76 243.283)" fill="#f55c18" stroke="#f55c18" stroke-miterlimit="10" stroke-width="2"/>
      <circle id="Ellipse_74" data-name="Ellipse 74" cx="0.607" cy="0.607" r="0.607" transform="translate(537.915 243.283)" fill="#f55c18" stroke="#f55c18" stroke-miterlimit="10" stroke-width="2"/>
      <circle id="Ellipse_75" data-name="Ellipse 75" cx="0.607" cy="0.607" r="0.607" transform="translate(529.338 234.706)" fill="#f55c18" stroke="#f55c18" stroke-miterlimit="10" stroke-width="2"/>
      <path id="Path_138" data-name="Path 138" d="M511.816,237.148a.606.606,0,1,0,0,.858A.607.607,0,0,0,511.816,237.148Z" transform="translate(1.403 6.313)" fill="#f55c18" stroke="#f55c18" stroke-miterlimit="10" stroke-width="2"/>
      <circle id="Ellipse_76" data-name="Ellipse 76" cx="0.607" cy="0.607" r="0.607" transform="translate(520.76 234.706)" fill="#f55c18" stroke="#f55c18" stroke-miterlimit="10" stroke-width="2"/>
      <path id="Path_139" data-name="Path 139" d="M511.816,252.9a.606.606,0,1,0,0,.857A.6.6,0,0,0,511.816,252.9Z" transform="translate(1.403 7.715)" fill="#f55c18" stroke="#f55c18" stroke-miterlimit="10" stroke-width="2"/>
      <path id="Path_140" data-name="Path 140" d="M511.816,260.775a.606.606,0,1,0,0,.858A.607.607,0,0,0,511.816,260.775Z" transform="translate(1.403 8.417)" fill="#f55c18" stroke="#f55c18" stroke-miterlimit="10" stroke-width="2"/>
      <path id="Path_141" data-name="Path 141" d="M503.941,252.9a.606.606,0,1,0,0,.857A.606.606,0,0,0,503.941,252.9Z" transform="translate(0.701 7.715)" fill="#f55c18" stroke="#f55c18" stroke-miterlimit="10" stroke-width="2"/>
      <circle id="Ellipse_77" data-name="Ellipse 77" cx="0.607" cy="0.607" r="0.607" transform="translate(520.76 260.438)" fill="#f55c18" stroke="#f55c18" stroke-miterlimit="10" stroke-width="2"/>
      <path id="Path_142" data-name="Path 142" d="M511.816,245.025a.606.606,0,1,0,0,.858A.606.606,0,0,0,511.816,245.025Z" transform="translate(1.403 7.014)" fill="#f55c18" stroke="#f55c18" stroke-miterlimit="10" stroke-width="2"/>
      <path id="Path_143" data-name="Path 143" d="M503.941,245.025a.607.607,0,1,0,0,.858A.607.607,0,0,0,503.941,245.025Z" transform="translate(0.701 7.014)" fill="#f55c18" stroke="#f55c18" stroke-miterlimit="10" stroke-width="2"/>
      <path id="Path_144" data-name="Path 144" d="M566.947,166.266a.607.607,0,1,0,0,.858A.608.608,0,0,0,566.947,166.266Z" transform="translate(6.313)" fill="#f55c18" stroke="#f55c18" stroke-miterlimit="10" stroke-width="2"/>
      <path id="Path_145" data-name="Path 145" d="M574.822,167.125a.606.606,0,1,0-.857,0A.606.606,0,0,0,574.822,167.125Z" transform="translate(7.014)" fill="#f55c18" stroke="#f55c18" stroke-miterlimit="10" stroke-width="2"/>
      <path id="Path_146" data-name="Path 146" d="M559.071,174.143a.607.607,0,1,0,0,.858A.607.607,0,0,0,559.071,174.143Z" transform="translate(5.611 0.701)" fill="#f55c18" stroke="#f55c18" stroke-miterlimit="10" stroke-width="2"/>
      <path id="Path_147" data-name="Path 147" d="M566.089,182.877a.607.607,0,1,0,0-.858A.608.608,0,0,0,566.089,182.877Z" transform="translate(6.313 1.403)" fill="#f55c18" stroke="#f55c18" stroke-miterlimit="10" stroke-width="2"/>
      <circle id="Ellipse_78" data-name="Ellipse 78" cx="0.607" cy="0.607" r="0.607" transform="translate(563.646 183.243)" fill="#f55c18" stroke="#f55c18" stroke-miterlimit="10" stroke-width="2"/>
      <path id="Path_148" data-name="Path 148" d="M550.336,175a.607.607,0,1,0,0-.858A.608.608,0,0,0,550.336,175Z" transform="translate(4.91 0.701)" fill="#f55c18" stroke="#f55c18" stroke-miterlimit="10" stroke-width="2"/>
      <path id="Path_149" data-name="Path 149" d="M566.089,175a.607.607,0,1,0,0-.858A.608.608,0,0,0,566.089,175Z" transform="translate(6.313 0.701)" fill="#f55c18" stroke="#f55c18" stroke-miterlimit="10" stroke-width="2"/>
      <path id="Path_150" data-name="Path 150" d="M558.212,166.266a.607.607,0,1,0,.858,0A.608.608,0,0,0,558.212,166.266Z" transform="translate(5.611)" fill="#f55c18" stroke="#f55c18" stroke-miterlimit="10" stroke-width="2"/>
      <path id="Path_151" data-name="Path 151" d="M543.319,174.143a.606.606,0,1,0,0,.858A.606.606,0,0,0,543.319,174.143Z" transform="translate(4.208 0.701)" fill="#f55c18" stroke="#f55c18" stroke-miterlimit="10" stroke-width="2"/>
      <path id="Path_152" data-name="Path 152" d="M551.195,166.266a.607.607,0,1,0,0,.858A.608.608,0,0,0,551.195,166.266Z" transform="translate(4.91)" fill="#f55c18" stroke="#f55c18" stroke-miterlimit="10" stroke-width="2"/>
      <path id="Path_153" data-name="Path 153" d="M542.462,190.752a.606.606,0,1,0,0-.857A.6.6,0,0,0,542.462,190.752Z" transform="translate(4.208 2.104)" fill="#f55c18" stroke="#f55c18" stroke-miterlimit="10" stroke-width="2"/>
      <path id="Path_154" data-name="Path 154" d="M542.462,198.628a.606.606,0,1,0,0-.858A.606.606,0,0,0,542.462,198.628Z" transform="translate(4.208 2.806)" fill="#f55c18" stroke="#f55c18" stroke-miterlimit="10" stroke-width="2"/>
      <path id="Path_155" data-name="Path 155" d="M534.586,190.752a.606.606,0,1,0,0-.857A.606.606,0,0,0,534.586,190.752Z" transform="translate(3.507 2.104)" fill="#f55c18" stroke="#f55c18" stroke-miterlimit="10" stroke-width="2"/>
      <path id="Path_156" data-name="Path 156" d="M550.336,189.895a.606.606,0,1,0,.858,0A.607.607,0,0,0,550.336,189.895Z" transform="translate(4.91 2.104)" fill="#f55c18" stroke="#f55c18" stroke-miterlimit="10" stroke-width="2"/>
      <path id="Path_157" data-name="Path 157" d="M542.462,182.877a.606.606,0,1,0,0-.858A.607.607,0,0,0,542.462,182.877Z" transform="translate(4.208 1.403)" fill="#f55c18" stroke="#f55c18" stroke-miterlimit="10" stroke-width="2"/>
      <path id="Path_158" data-name="Path 158" d="M527.568,189.895a.606.606,0,1,0,0,.857A.606.606,0,0,0,527.568,189.895Z" transform="translate(2.806 2.104)" fill="#f55c18" stroke="#f55c18" stroke-miterlimit="10" stroke-width="2"/>
      <circle id="Ellipse_79" data-name="Ellipse 79" cx="0.607" cy="0.607" r="0.607" transform="translate(537.915 183.243)" fill="#f55c18" stroke="#f55c18" stroke-miterlimit="10" stroke-width="2"/>
      <circle id="Ellipse_80" data-name="Ellipse 80" cx="0.607" cy="0.607" r="0.607" transform="translate(555.069 183.243)" fill="#f55c18" stroke="#f55c18" stroke-miterlimit="10" stroke-width="2"/>
      <path id="Path_159" data-name="Path 159" d="M558.212,190.752a.606.606,0,1,0,0-.857A.606.606,0,0,0,558.212,190.752Z" transform="translate(5.611 2.104)" fill="#f55c18" stroke="#f55c18" stroke-miterlimit="10" stroke-width="2"/>
      <path id="Path_160" data-name="Path 160" d="M519.692,213.522a.607.607,0,1,0,0,.858A.607.607,0,0,0,519.692,213.522Z" transform="translate(2.104 4.208)" fill="#f55c18" stroke="#f55c18" stroke-miterlimit="10" stroke-width="2"/>
      <circle id="Ellipse_81" data-name="Ellipse 81" cx="0.607" cy="0.607" r="0.607" transform="translate(529.338 208.975)" fill="#f55c18" stroke="#f55c18" stroke-miterlimit="10" stroke-width="2"/>
      <path id="Path_161" data-name="Path 161" d="M527.568,213.522a.607.607,0,1,0,0,.858A.607.607,0,0,0,527.568,213.522Z" transform="translate(2.806 4.208)" fill="#f55c18" stroke="#f55c18" stroke-miterlimit="10" stroke-width="2"/>
      <circle id="Ellipse_82" data-name="Ellipse 82" cx="0.607" cy="0.607" r="0.607" transform="translate(520.76 208.975)" fill="#f55c18" stroke="#f55c18" stroke-miterlimit="10" stroke-width="2"/>
      <circle id="Ellipse_83" data-name="Ellipse 83" cx="0.607" cy="0.607" r="0.607" transform="translate(537.915 208.975)" fill="#f55c18" stroke="#f55c18" stroke-miterlimit="10" stroke-width="2"/>
      <path id="Path_162" data-name="Path 162" d="M527.568,197.77a.607.607,0,1,0,0,.858A.608.608,0,0,0,527.568,197.77Z" transform="translate(2.806 2.806)" fill="#f55c18" stroke="#f55c18" stroke-miterlimit="10" stroke-width="2"/>
      <path id="Path_163" data-name="Path 163" d="M511.816,205.646a.606.606,0,1,0,0,.858A.606.606,0,0,0,511.816,205.646Z" transform="translate(1.403 3.507)" fill="#f55c18" stroke="#f55c18" stroke-miterlimit="10" stroke-width="2"/>
      <path id="Path_164" data-name="Path 164" d="M519.692,197.77a.607.607,0,1,0,0,.858A.608.608,0,0,0,519.692,197.77Z" transform="translate(2.104 2.806)" fill="#f55c18" stroke="#f55c18" stroke-miterlimit="10" stroke-width="2"/>
      <path id="Path_165" data-name="Path 165" d="M534.586,198.628a.607.607,0,1,0,0-.858A.607.607,0,0,0,534.586,198.628Z" transform="translate(3.507 2.806)" fill="#f55c18" stroke="#f55c18" stroke-miterlimit="10" stroke-width="2"/>
      <path id="Path_166" data-name="Path 166" d="M542.462,206.5a.606.606,0,1,0,0-.858A.607.607,0,0,0,542.462,206.5Z" transform="translate(4.208 3.507)" fill="#f55c18" stroke="#f55c18" stroke-miterlimit="10" stroke-width="2"/>
      <path id="Path_167" data-name="Path 167" d="M503.941,229.272a.607.607,0,1,0,0,.858A.608.608,0,0,0,503.941,229.272Z" transform="translate(0.701 5.611)" fill="#f55c18" stroke="#f55c18" stroke-miterlimit="10" stroke-width="2"/>
      <path id="Path_168" data-name="Path 168" d="M511.816,221.4a.606.606,0,1,0,0,.857A.6.6,0,0,0,511.816,221.4Z" transform="translate(1.403 4.91)" fill="#f55c18" stroke="#f55c18" stroke-miterlimit="10" stroke-width="2"/>
      <path id="Path_169" data-name="Path 169" d="M511.816,229.272a.606.606,0,1,0,0,.858A.607.607,0,0,0,511.816,229.272Z" transform="translate(1.403 5.611)" fill="#f55c18" stroke="#f55c18" stroke-miterlimit="10" stroke-width="2"/>
      <path id="Path_170" data-name="Path 170" d="M503.941,221.4a.606.606,0,1,0,0,.857A.606.606,0,0,0,503.941,221.4Z" transform="translate(0.701 4.91)" fill="#f55c18" stroke="#f55c18" stroke-miterlimit="10" stroke-width="2"/>
      <circle id="Ellipse_84" data-name="Ellipse 84" cx="0.607" cy="0.607" r="0.607" transform="translate(520.76 226.129)" fill="#f55c18" stroke="#f55c18" stroke-miterlimit="10" stroke-width="2"/>
      <path id="Path_171" data-name="Path 171" d="M511.816,213.522a.606.606,0,1,0,0,.858A.606.606,0,0,0,511.816,213.522Z" transform="translate(1.403 4.208)" fill="#f55c18" stroke="#f55c18" stroke-miterlimit="10" stroke-width="2"/>
      <path id="Path_172" data-name="Path 172" d="M503.941,213.522a.607.607,0,1,0,0,.858A.607.607,0,0,0,503.941,213.522Z" transform="translate(0.701 4.208)" fill="#f55c18" stroke="#f55c18" stroke-miterlimit="10" stroke-width="2"/>
      <path id="Path_173" data-name="Path 173" d="M496.065,237.148a.607.607,0,1,0,0,.858A.608.608,0,0,0,496.065,237.148Z" transform="translate(0 6.313)" fill="#f55c18" stroke="#f55c18" stroke-miterlimit="10" stroke-width="2"/>
      <path id="Path_174" data-name="Path 174" d="M503.083,237.148a.607.607,0,1,0,.858,0A.606.606,0,0,0,503.083,237.148Z" transform="translate(0.701 6.313)" fill="#f55c18" stroke="#f55c18" stroke-miterlimit="10" stroke-width="2"/>
      <path id="Path_175" data-name="Path 175" d="M495.207,229.272a.607.607,0,1,0,.858,0A.606.606,0,0,0,495.207,229.272Z" transform="translate(0 5.611)" fill="#f55c18" stroke="#f55c18" stroke-miterlimit="10" stroke-width="2"/>
      <path id="Path_176" data-name="Path 176" d="M535.444,166.266a.607.607,0,1,0,0,.858A.608.608,0,0,0,535.444,166.266Z" transform="translate(3.507)" fill="#f55c18" stroke="#f55c18" stroke-miterlimit="10" stroke-width="2"/>
      <path id="Path_177" data-name="Path 177" d="M543.319,167.125a.606.606,0,1,0-.857,0A.606.606,0,0,0,543.319,167.125Z" transform="translate(4.208)" fill="#f55c18" stroke="#f55c18" stroke-miterlimit="10" stroke-width="2"/>
      <path id="Path_178" data-name="Path 178" d="M527.568,174.143a.607.607,0,1,0,0,.858A.607.607,0,0,0,527.568,174.143Z" transform="translate(2.806 0.701)" fill="#f55c18" stroke="#f55c18" stroke-miterlimit="10" stroke-width="2"/>
      <circle id="Ellipse_85" data-name="Ellipse 85" cx="0.607" cy="0.607" r="0.607" transform="translate(529.338 183.243)" fill="#f55c18" stroke="#f55c18" stroke-miterlimit="10" stroke-width="2"/>
      <path id="Path_179" data-name="Path 179" d="M519.692,174.143a.607.607,0,1,0,0,.858A.607.607,0,0,0,519.692,174.143Z" transform="translate(2.104 0.701)" fill="#f55c18" stroke="#f55c18" stroke-miterlimit="10" stroke-width="2"/>
      <path id="Path_180" data-name="Path 180" d="M534.586,175a.607.607,0,1,0,0-.858A.608.608,0,0,0,534.586,175Z" transform="translate(3.507 0.701)" fill="#f55c18" stroke="#f55c18" stroke-miterlimit="10" stroke-width="2"/>
      <path id="Path_181" data-name="Path 181" d="M527.568,166.266a.607.607,0,1,0,0,.858A.608.608,0,0,0,527.568,166.266Z" transform="translate(2.806)" fill="#f55c18" stroke="#f55c18" stroke-miterlimit="10" stroke-width="2"/>
      <path id="Path_182" data-name="Path 182" d="M503.941,197.77a.607.607,0,1,0,0,.858A.608.608,0,0,0,503.941,197.77Z" transform="translate(0.701 2.806)" fill="#f55c18" stroke="#f55c18" stroke-miterlimit="10" stroke-width="2"/>
      <path id="Path_183" data-name="Path 183" d="M511.816,189.895a.606.606,0,1,0,0,.857A.6.6,0,0,0,511.816,189.895Z" transform="translate(1.403 2.104)" fill="#f55c18" stroke="#f55c18" stroke-miterlimit="10" stroke-width="2"/>
      <path id="Path_184" data-name="Path 184" d="M511.816,197.77a.606.606,0,1,0,0,.858A.607.607,0,0,0,511.816,197.77Z" transform="translate(1.403 2.806)" fill="#f55c18" stroke="#f55c18" stroke-miterlimit="10" stroke-width="2"/>
      <path id="Path_185" data-name="Path 185" d="M503.083,190.752a.606.606,0,1,0,0-.857A.606.606,0,0,0,503.083,190.752Z" transform="translate(0.701 2.104)" fill="#f55c18" stroke="#f55c18" stroke-miterlimit="10" stroke-width="2"/>
      <path id="Path_186" data-name="Path 186" d="M519.692,189.895a.606.606,0,1,0,0,.857A.606.606,0,0,0,519.692,189.895Z" transform="translate(2.104 2.104)" fill="#f55c18" stroke="#f55c18" stroke-miterlimit="10" stroke-width="2"/>
      <path id="Path_187" data-name="Path 187" d="M510.959,182.019a.606.606,0,1,0,.857,0A.606.606,0,0,0,510.959,182.019Z" transform="translate(1.403 1.403)" fill="#f55c18" stroke="#f55c18" stroke-miterlimit="10" stroke-width="2"/>
      <circle id="Ellipse_86" data-name="Ellipse 86" cx="0.607" cy="0.607" r="0.607" transform="translate(520.76 183.243)" fill="#f55c18" stroke="#f55c18" stroke-miterlimit="10" stroke-width="2"/>
      <path id="Path_188" data-name="Path 188" d="M496.065,205.646a.607.607,0,1,0,0,.858A.607.607,0,0,0,496.065,205.646Z" transform="translate(0 3.507)" fill="#f55c18" stroke="#f55c18" stroke-miterlimit="10" stroke-width="2"/>
      <path id="Path_189" data-name="Path 189" d="M496.065,213.522a.607.607,0,1,0,0,.858A.607.607,0,0,0,496.065,213.522Z" transform="translate(0 4.208)" fill="#f55c18" stroke="#f55c18" stroke-miterlimit="10" stroke-width="2"/>
      <path id="Path_190" data-name="Path 190" d="M503.941,205.646a.607.607,0,1,0,0,.858A.607.607,0,0,0,503.941,205.646Z" transform="translate(0.701 3.507)" fill="#f55c18" stroke="#f55c18" stroke-miterlimit="10" stroke-width="2"/>
      <path id="Path_191" data-name="Path 191" d="M496.064,198.628a.607.607,0,0,0-.858-.858c-.06.148-.115.3-.174.447a.6.6,0,0,0,1.032.412Z" transform="translate(0 2.806)" fill="#f55c18" stroke="#f55c18" stroke-miterlimit="10" stroke-width="2"/>
      <path id="Path_192" data-name="Path 192" d="M495.207,222.255a.606.606,0,1,0,0-.857A.606.606,0,0,0,495.207,222.255Z" transform="translate(0 4.91)" fill="#f55c18" stroke="#f55c18" stroke-miterlimit="10" stroke-width="2"/>
    </g>
  </g>
</svg>
