<svg xmlns="http://www.w3.org/2000/svg" width="767" height="248" viewBox="0 0 767 248">
  <g id="Group_5447" data-name="Group 5447" transform="translate(-557 -6267)">
    <circle id="Ellipse_97" data-name="Ellipse 97" cx="12" cy="12" r="12" transform="translate(557 6267)" fill="#ddd"/>
    <circle id="Ellipse_100" data-name="Ellipse 100" cx="7" cy="7" r="7" transform="translate(1310 6501)" fill="#c4c4c4"/>
    <path id="Subtraction_1" data-name="Subtraction 1" d="M-3855,3021a16.893,16.893,0,0,1-6.617-1.336,16.94,16.94,0,0,1-5.4-3.643,16.939,16.939,0,0,1-3.644-5.4A16.9,16.9,0,0,1-3872,3004a16.9,16.9,0,0,1,1.336-6.617,16.944,16.944,0,0,1,3.644-5.4,16.942,16.942,0,0,1,5.4-3.643A16.893,16.893,0,0,1-3855,2987a16.894,16.894,0,0,1,6.617,1.336,16.943,16.943,0,0,1,5.4,3.643,16.944,16.944,0,0,1,3.644,5.4A16.9,16.9,0,0,1-3838,3004a16.9,16.9,0,0,1-1.336,6.617,16.939,16.939,0,0,1-3.644,5.4,16.942,16.942,0,0,1-5.4,3.643A16.894,16.894,0,0,1-3855,3021Zm0-28.5a11.429,11.429,0,0,0-4.476.9,11.461,11.461,0,0,0-3.656,2.465,11.463,11.463,0,0,0-2.465,3.656,11.425,11.425,0,0,0-.9,4.476,11.425,11.425,0,0,0,.9,4.476,11.462,11.462,0,0,0,2.465,3.655,11.463,11.463,0,0,0,3.656,2.464,11.429,11.429,0,0,0,4.476.9,11.431,11.431,0,0,0,4.477-.9,11.462,11.462,0,0,0,3.655-2.464,11.462,11.462,0,0,0,2.465-3.655,11.425,11.425,0,0,0,.9-4.476,11.425,11.425,0,0,0-.9-4.476,11.463,11.463,0,0,0-2.465-3.656,11.462,11.462,0,0,0-3.655-2.465A11.431,11.431,0,0,0-3855,2992.5Z" transform="translate(4550 3423)" fill="#ffeded"/>
    <path id="Path_6881" data-name="Path 6881" d="M9.8,0c5.414,0,5.679,4.389,5.679,9.8S15.216,17,9.8,17,0,15.216,0,9.8A9.8,9.8,0,0,1,9.8,0Z" transform="translate(1284 6291)" fill="#ffa3a3"/>
  </g>
</svg>
