<svg xmlns="http://www.w3.org/2000/svg" width="45.146" height="63.31" viewBox="0 0 45.146 63.31">
  <g id="medal" transform="translate(-22.875 -9.95)">
    <path id="Path_216" data-name="Path 216" d="M67.234,81.465l-8.146-1.129L54.3,87.017,46.026,67.74,37.749,87.017l-4.787-6.681-8.146,1.129L37.274,56.6l8.752-.383,8.752.383Z" transform="translate(-0.577 -13.757)" fill="#f51818"/>
    <path id="Path_217" data-name="Path 217" d="M65.9,36.592c.271-1.37,2.125-2.619,2.125-4.069s-1.854-2.7-2.125-4.069c-.279-1.412.95-3.273.412-4.572-.548-1.321-2.739-1.765-3.525-2.94s-.369-3.377-1.373-4.38-3.2-.581-4.38-1.373-1.619-2.977-2.94-3.526c-1.3-.539-3.16.691-4.572.412C48.147,11.8,46.9,9.95,45.448,9.95s-2.7,1.854-4.069,2.125c-1.412.279-3.273-.95-4.572-.412-1.321.548-1.765,2.739-2.94,3.525s-3.377.369-4.38,1.373-.581,3.2-1.373,4.38-2.977,1.619-3.526,2.94c-.539,1.3.691,3.16.412,4.572-.271,1.37-2.125,2.619-2.125,4.069s1.854,2.7,2.125,4.069c.279,1.412-.95,3.273-.412,4.572.548,1.322,2.739,1.766,3.525,2.94s.369,3.377,1.373,4.38,3.2.581,4.38,1.373,1.619,2.977,2.94,3.526c1.3.539,3.16-.691,4.572-.411,1.37.271,2.619,2.125,4.069,2.125s2.7-1.854,4.069-2.125c1.412-.279,3.273.95,4.572.412,1.321-.548,1.765-2.739,2.94-3.525s3.377-.369,4.38-1.373.581-3.2,1.373-4.38,2.977-1.619,3.526-2.94C66.847,39.865,65.617,38,65.9,36.592Z" fill="#fc9494"/>
    <path id="Path_218" data-name="Path 218" d="M48,18.54A16.537,16.537,0,1,0,64.541,35.08,16.558,16.558,0,0,0,48,18.54Zm0,31.179A14.642,14.642,0,1,1,62.64,35.08,14.655,14.655,0,0,1,48,49.719Z" transform="translate(-2.553 -2.554)" fill="#ededed"/>
    <path id="Path_219" data-name="Path 219" d="M60.341,34.036l-6.4-.93-2.861-5.8-2.861,5.8-6.4.93,4.629,4.512L45.36,44.92l5.722-3.008L56.8,44.92l-1.093-6.372Z" transform="translate(-5.634 -5.161)" fill="#fff"/>
  </g>
</svg>
