<svg id="twitter-logo-button" xmlns="http://www.w3.org/2000/svg" width="27" height="27" viewBox="0 0 27 27">
  <g id="Group_5450" data-name="Group 5450">
    <path id="Path_6884" data-name="Path 6884" d="M13.5,0A13.5,13.5,0,1,0,27,13.5,13.515,13.515,0,0,0,13.5,0Zm6.022,10.41c.006.134.009.269.009.4a8.839,8.839,0,0,1-13.6,7.444,6.274,6.274,0,0,0,4.6-1.287,3.11,3.11,0,0,1-2.9-2.158,3.119,3.119,0,0,0,1.4-.052,3.108,3.108,0,0,1-2.492-3.047c0-.013,0-.027,0-.039a3.1,3.1,0,0,0,1.407.388,3.112,3.112,0,0,1-.961-4.149,8.823,8.823,0,0,0,6.4,3.247,3.109,3.109,0,0,1,5.295-2.835,6.2,6.2,0,0,0,1.974-.754,3.121,3.121,0,0,1-1.368,1.719A6.177,6.177,0,0,0,21.071,8.8,6.25,6.25,0,0,1,19.522,10.41Z" fill="#fff"/>
  </g>
</svg>
