<svg xmlns="http://www.w3.org/2000/svg" width="67.537" height="60.741" viewBox="0 0 67.537 60.741">
  <g id="electricity" transform="translate(0 -25.758)">
    <path id="Path_226" data-name="Path 226" d="M229.136,449.956a4.082,4.082,0,0,1-4.082-4.082v-1.432h8.164v1.432A4.082,4.082,0,0,1,229.136,449.956Z" transform="translate(-195.368 -363.456)" fill="#a59da5"/>
    <path id="Path_227" data-name="Path 227" d="M220.889,368.4H212.7a1.865,1.865,0,0,1-1.865-1.865V355.949h11.914v10.589A1.865,1.865,0,0,1,220.889,368.4Z" transform="translate(-183.029 -286.636)" fill="#e2dfe2"/>
    <path id="Path_228" data-name="Path 228" d="M217.318,355.948v5.1a4.641,4.641,0,0,1-4.641,4.641H210.84v.853A1.865,1.865,0,0,0,212.7,368.4h8.184a1.865,1.865,0,0,0,1.865-1.865V355.948h-5.436Z" transform="translate(-183.029 -286.635)" fill="#d3ced5"/>
    <path id="Path_229" data-name="Path 229" d="M214.381,387.007H201.87a1.019,1.019,0,0,1,0-2.038h12.511a1.019,1.019,0,1,1,0,2.038Z" transform="translate(-174.357 -311.828)" fill="#fff"/>
    <path id="Path_230" data-name="Path 230" d="M214.381,413.451H201.87a1.019,1.019,0,0,1,0-2.038h12.511a1.019,1.019,0,1,1,0,2.038Z" transform="translate(-174.357 -334.784)" fill="#fff"/>
    <path id="Path_231" data-name="Path 231" d="M150.871,44.595a18.837,18.837,0,0,0-37.674,0,20.252,20.252,0,0,0,5.942,14.011,17.6,17.6,0,0,1,4.622,9.982,2.34,2.34,0,0,0,2.316,2.084h11.914a2.34,2.34,0,0,0,2.316-2.084,17.6,17.6,0,0,1,4.622-9.982A20.251,20.251,0,0,0,150.871,44.595Z" transform="translate(-98.265 0)" fill="#fa9494"/>
    <path id="Path_232" data-name="Path 232" d="M206.575,32.145a18.812,18.812,0,0,1,7.814,15.277,20.252,20.252,0,0,1-5.942,14.011A17.5,17.5,0,0,0,204.8,67.36a9.452,9.452,0,0,1-8.888,6.138h-3.278q.049.316.086.634a2.34,2.34,0,0,0,2.316,2.084h11.914a2.34,2.34,0,0,0,2.316-2.084,17.6,17.6,0,0,1,4.622-9.982,20.252,20.252,0,0,0,5.942-14.011,18.845,18.845,0,0,0-13.25-17.994Z" transform="translate(-167.22 -5.544)" fill="#fa9494"/>
    <path id="Path_233" data-name="Path 233" d="M209.856,120.59l-2.984,8.355a.6.6,0,0,0,.561.8h1.9a.6.6,0,0,0,.5-.276l8.079-12.69a.869.869,0,0,0-.733-1.336H214.13a.869.869,0,0,1-.819-1.162l2.543-7.121a.869.869,0,0,0-.819-1.162h-5.224a.87.87,0,0,0-.819.577l-4.486,12.563a.869.869,0,0,0,.819,1.162h4.324A.22.22,0,0,1,209.856,120.59Z" transform="translate(-177.485 -69.653)" fill="#f51818"/>
    <g id="Group_43" data-name="Group 43" transform="translate(0 26.302)">
      <path id="Path_234" data-name="Path 234" d="M429.326,154.541a2.038,2.038,0,0,1,2.038-2.038h6.829a2.038,2.038,0,0,1,0,4.077h-6.829A2.038,2.038,0,0,1,429.326,154.541Z" transform="translate(-372.695 -136.328)" fill="#fa9494"/>
      <path id="Path_235" data-name="Path 235" d="M410.614,35.335a2.037,2.037,0,0,1,1.02-1.767l5.914-3.414a2.038,2.038,0,1,1,2.038,3.531L413.672,37.1a2.039,2.039,0,0,1-3.058-1.763Z" transform="translate(-356.451 -29.88)" fill="#fa9494"/>
      <path id="Path_236" data-name="Path 236" d="M410.614,251.275a2.039,2.039,0,0,1,3.058-1.763l5.914,3.414a2.038,2.038,0,1,1-2.038,3.531l-5.914-3.414A2.037,2.037,0,0,1,410.614,251.275Z" transform="translate(-356.451 -220.303)" fill="#fa9494"/>
      <path id="Path_237" data-name="Path 237" d="M10.905,154.541A2.038,2.038,0,0,0,8.867,152.5H2.038a2.038,2.038,0,0,0,0,4.077H8.867A2.038,2.038,0,0,0,10.905,154.541Z" transform="translate(0 -136.328)" fill="#fa9494"/>
      <path id="Path_238" data-name="Path 238" d="M35.634,35.334a2.037,2.037,0,0,0-1.02-1.767L28.7,30.152a2.038,2.038,0,0,0-2.038,3.531L32.576,37.1a2.039,2.039,0,0,0,3.058-1.763Z" transform="translate(-22.26 -29.879)" fill="#fa9494"/>
      <path id="Path_239" data-name="Path 239" d="M35.633,251.275a2.039,2.039,0,0,0-3.058-1.763l-5.914,3.414a2.038,2.038,0,1,0,2.038,3.531l5.914-3.414A2.037,2.037,0,0,0,35.633,251.275Z" transform="translate(-22.259 -220.303)" fill="#fa9494"/>
    </g>
  </g>
</svg>
