<svg xmlns="http://www.w3.org/2000/svg" width="24.974" height="24.974" viewBox="0 0 24.974 24.974">
  <path id="linkedin_2_" data-name="linkedin (2)" d="M12.487,0A12.487,12.487,0,1,0,24.974,12.487,12.489,12.489,0,0,0,12.487,0ZM8.859,18.877H5.817V9.728H8.859ZM7.338,8.478h-.02a1.585,1.585,0,1,1,.04-3.161,1.586,1.586,0,1,1-.02,3.161Zm12.486,10.4H16.784V13.982c0-1.23-.44-2.069-1.541-2.069a1.665,1.665,0,0,0-1.56,1.112,2.083,2.083,0,0,0-.1.742v5.11H10.542s.04-8.291,0-9.15h3.041v1.3a3.019,3.019,0,0,1,2.741-1.51c2,0,3.5,1.308,3.5,4.118Zm0,0" fill="#333"/>
</svg>
