<svg xmlns="http://www.w3.org/2000/svg" width="51.726" height="60.741" viewBox="0 0 51.726 60.741">
  <g id="surface1" transform="translate(-0.5 0)">
    <path id="Path_220" data-name="Path 220" d="M49.494,40.563A30.645,30.645,0,0,1,42.154,52,38.418,38.418,0,0,1,27.81,60.5a4.387,4.387,0,0,1-1.394.246h-.052a4.454,4.454,0,0,1-.855-.084,4.622,4.622,0,0,1-.588-.16A38.416,38.416,0,0,1,10.559,52,30.587,30.587,0,0,1,3.221,40.571C.256,32.526.425,23.664.561,16.542l0-.109c.027-.588.045-1.206.055-1.888A6.438,6.438,0,0,1,6.68,8.238c6.984-.39,12.386-2.667,17-7.167l.04-.037a3.891,3.891,0,0,1,5.283,0l.039.037c4.617,4.5,10.02,6.777,17,7.167a6.438,6.438,0,0,1,6.062,6.307c.01.687.027,1.3.055,1.888v.046C52.3,23.614,52.469,32.494,49.494,40.563Zm0,0" transform="translate(0 0)" fill="#fa9494"/>
    <path id="Path_221" data-name="Path 221" d="M242.027,40.566A30.645,30.645,0,0,1,234.687,52a38.418,38.418,0,0,1-14.344,8.5,4.388,4.388,0,0,1-1.394.246V0a3.9,3.9,0,0,1,2.589,1.033l.039.037c4.617,4.5,10.02,6.777,17,7.167a6.438,6.438,0,0,1,6.062,6.307c.01.687.027,1.3.055,1.888v.046C244.835,23.617,245,32.5,242.027,40.566Zm0,0" transform="translate(-192.533 -0.003)" fill="#f51818"/>
    <path id="Path_222" data-name="Path 222" d="M121.171,143.537a15.157,15.157,0,0,1-15.085,15.139h-.053a15.138,15.138,0,1,1,0-30.277h.053A15.157,15.157,0,0,1,121.171,143.537Zm0,0" transform="translate(-79.67 -113.166)" fill="#fff"/>
    <path id="Path_223" data-name="Path 223" d="M234.034,143.537a15.157,15.157,0,0,1-15.085,15.139V128.4A15.157,15.157,0,0,1,234.034,143.537Zm0,0" transform="translate(-192.533 -113.166)" fill="#e1ebf0"/>
    <path id="Path_224" data-name="Path 224" d="M168.68,215.022l-6.818,6.819-1.473,1.473a1.784,1.784,0,0,1-2.521,0l-3.167-3.169a1.782,1.782,0,0,1,2.52-2.52l1.908,1.908,7.031-7.031a1.782,1.782,0,0,1,2.52,2.52Zm0,0" transform="translate(-135.446 -186.831)" fill="#fa9494"/>
    <path id="Path_225" data-name="Path 225" d="M225.767,215.022l-6.818,6.819V216.8l4.3-4.3a1.782,1.782,0,0,1,2.52,2.52Zm0,0" transform="translate(-192.533 -186.831)" fill="#f51818"/>
  </g>
</svg>
