<svg id="Group_19" data-name="Group 19" xmlns="http://www.w3.org/2000/svg" width="37.078" height="37.5" viewBox="0 0 37.078 37.5">
  <rect id="Rectangle_12" data-name="Rectangle 12" width="7.126" height="7.126" rx="3.563" transform="translate(7.221 11.449)" fill="#bfbfbf"/>
  <path id="Path_2" data-name="Path 2" d="M444.444,77.875a10.342,10.342,0,0,0-10.311-10.311h0a10.341,10.341,0,0,0-10.311,10.311h0V92.943s20.62-2.3,20.622-15.066Z" transform="translate(-407.367 -67.564)" fill="#bfbfbf"/>
  <path id="Path_3" data-name="Path 3" d="M353.746,162.549v0h0a7.2,7.2,0,0,0,7.174,7.174h0a7.2,7.2,0,0,0,7.174-7.174h0V152.068S353.748,153.665,353.746,162.549Zm7.174,1.887a1.885,1.885,0,1,1,1.885-1.885A1.891,1.891,0,0,1,360.92,164.436Z" transform="translate(-353.746 -132.225)" fill="#bfbfbf"/>
</svg>
