<svg id="Group_17" data-name="Group 17" xmlns="http://www.w3.org/2000/svg" width="43.212" height="37.422" viewBox="0 0 43.212 37.422">
  <g id="Group_10" data-name="Group 10" transform="translate(0 0)">
    <path id="Path_4" data-name="Path 4" d="M682.117,69.107H660.511l-10.8,18.711,10.8,18.711h21.606l10.8-18.711Zm-.954,35.487-.082.141H661.547L651.78,87.818,661.547,70.9h.164l2.214,3.835,2.359-4.085h.311l-2.514,4.355,1.186,2.055,3.7-6.41h.414l-3.908,6.768,1.109,1.92,5.017-8.689h.621l-5.327,9.227,1.005,1.741,6.332-10.968h.829l-6.747,11.686.914,1.584,7.661-13.27h1.036l-8.179,14.167.8,1.382,8.977-15.549h1.243l-9.6,16.625.769,1.331L681.55,71.95l.829,1.435-9.617,16.658Z" transform="translate(-649.708 -69.107)" fill="#bfbfbf"/>
  </g>
</svg>
