<svg id="Social_integration" data-name="Social integration" xmlns="http://www.w3.org/2000/svg" width="51.01" height="51.889" viewBox="0 0 51.01 51.889">
  <g id="Group_42" data-name="Group 42" transform="translate(12.313 9.674)">
    <path id="Path_197" data-name="Path 197" d="M45.143,34.107a3.518,3.518,0,0,1,0-7.036H36.349l1.018-8.14A5.277,5.277,0,0,0,32.127,13h-.384A1.759,1.759,0,0,0,30,14.541l-.411,3.285a10.554,10.554,0,0,1-10.469,9.245H17V51.7l1.012.323a4.332,4.332,0,0,1,2.139.742,14.072,14.072,0,0,0,7.938,2.453H40.746a3.518,3.518,0,1,1,0-7.036h2.638a3.518,3.518,0,1,1,0-7.036h1.759a3.518,3.518,0,0,1,0-7.036Z" transform="translate(-17 -13)" fill="#9c7248"/>
    <path id="Path_198" data-name="Path 198" d="M19.771,53.948l-1.012-.323V29H17V53.625l1.012.323a4.332,4.332,0,0,1,2.139.742,14.072,14.072,0,0,0,7.938,2.453h1.759A14.072,14.072,0,0,1,21.91,54.69a4.332,4.332,0,0,0-2.139-.742Z" transform="translate(-17 -14.928)" fill="#9c7248"/>
    <path id="Path_199" data-name="Path 199" d="M50.277,36.036a3.518,3.518,0,0,1,0-7.036H48.518a3.518,3.518,0,1,0,0,7.036,3.518,3.518,0,1,0,0,7.036h1.759a3.518,3.518,0,0,1,0-7.036Z" transform="translate(-20.375 -14.928)" fill="#9c7248"/>
    <path id="Path_200" data-name="Path 200" d="M43,48.518a3.518,3.518,0,0,0,3.518,3.518h1.759a3.518,3.518,0,0,1,0-7.036H46.518A3.518,3.518,0,0,0,43,48.518Z" transform="translate(-20.134 -16.857)" fill="#9c7248"/>
    <path id="Path_201" data-name="Path 201" d="M40,56.518a3.518,3.518,0,0,0,3.518,3.518h1.759a3.518,3.518,0,1,1,0-7.036H43.518A3.518,3.518,0,0,0,40,56.518Z" transform="translate(-19.772 -17.821)" fill="#9c7248"/>
  </g>
  <path id="Path_202" data-name="Path 202" d="M43.277,53H41.518a3.518,3.518,0,1,0,0,7.036h1.759a3.518,3.518,0,1,1,0-7.036Z" transform="translate(-7.218 -8.147)" fill="#845c33"/>
  <path id="Path_203" data-name="Path 203" d="M41,48.518a3.518,3.518,0,0,0,3.518,3.518h1.759a3.518,3.518,0,1,1,0-7.036H44.518A3.518,3.518,0,0,0,41,48.518Z" transform="translate(-7.58 -7.182)" fill="#845c33"/>
  <path id="Path_204" data-name="Path 204" d="M48.277,36.036a3.518,3.518,0,0,1,0-7.036H46.518a3.518,3.518,0,0,0,0,7.036,3.518,3.518,0,0,0,0,7.036h1.759a3.518,3.518,0,0,1,0-7.036Z" transform="translate(-7.821 -5.254)" fill="#845c33"/>
  <path id="Path_205" data-name="Path 205" d="M3,25H15.313V56.661H3Z" transform="translate(-3 -4.772)" fill="#f51818"/>
  <ellipse id="Ellipse_90" data-name="Ellipse 90" cx="2.5" cy="2" rx="2.5" ry="2" transform="translate(3.761 44.187)" fill="#fff"/>
  <path id="Path_206" data-name="Path 206" d="M59.072,32.518A3.518,3.518,0,0,0,55.554,29H48.518a3.518,3.518,0,1,0,0,7.036h7.036A3.518,3.518,0,0,0,59.072,32.518Z" transform="translate(-8.062 -5.254)" fill="#9c7248"/>
  <path id="Path_207" data-name="Path 207" d="M45,40.518a3.518,3.518,0,0,0,3.518,3.518h7.036a3.518,3.518,0,0,0,0-7.036H48.518A3.518,3.518,0,0,0,45,40.518Z" transform="translate(-8.062 -6.218)" fill="#9c7248"/>
  <path id="Path_208" data-name="Path 208" d="M46.518,45a3.518,3.518,0,0,0,0,7.036h7.036a3.518,3.518,0,1,0,0-7.036Z" transform="translate(-7.821 -7.182)" fill="#9c7248"/>
  <path id="Path_209" data-name="Path 209" d="M43.518,53a3.518,3.518,0,1,0,0,7.036h7.036a3.518,3.518,0,1,0,0-7.036Z" transform="translate(-7.459 -8.147)" fill="#9c7248"/>
  <path id="Path_210" data-name="Path 210" d="M14,25h2.638V56.661H14Z" transform="translate(-4.326 -4.772)" fill="#fa9494"/>
  <path id="Path_211" data-name="Path 211" d="M34.879,9.036a.879.879,0,0,0,.879-.879V2.879a.879.879,0,1,0-1.759,0V8.156A.879.879,0,0,0,34.879,9.036Z" transform="translate(-6.736 -2)" fill="#f51818"/>
  <path id="Path_212" data-name="Path 212" d="M25.968,12.212a.879.879,0,1,0,1.244-1.244L23.481,7.237A.88.88,0,1,0,22.237,8.48Z" transform="translate(-5.287 -2.6)" fill="#f51818"/>
  <path id="Path_213" data-name="Path 213" d="M17.879,20.759h5.277a.879.879,0,0,0,0-1.759H17.879a.879.879,0,0,0,0,1.759Z" transform="translate(-4.687 -4.049)" fill="#f51818"/>
  <path id="Path_214" data-name="Path 214" d="M42.658,12.47a.879.879,0,0,0,.622-.258L47.011,8.48a.88.88,0,0,0-1.244-1.244l-3.731,3.732a.879.879,0,0,0,.622,1.5Z" transform="translate(-7.674 -2.6)" fill="#f51818"/>
  <path id="Path_215" data-name="Path 215" d="M45,19.879a.879.879,0,0,0,.879.879h5.277a.879.879,0,0,0,0-1.759H45.879A.879.879,0,0,0,45,19.879Z" transform="translate(-8.062 -4.049)" fill="#f51818"/>
</svg>
