<svg id="Group_16" data-name="Group 16" xmlns="http://www.w3.org/2000/svg" width="32.997" height="37.482" viewBox="0 0 32.997 37.482">
  <g id="Group_15" data-name="Group 15" transform="translate(0 0)">
    <path id="Path_7" data-name="Path 7" d="M968.249,74.653s13.174,4.973,12.894,12.17h0v12.17s-13.173-4.973-12.894-12.17h0Z" transform="translate(-968.249 -74.653)" fill="#bfbfbf"/>
    <g id="Group_14" data-name="Group 14" transform="translate(14.629 2.821)">
      <path id="Path_8" data-name="Path 8" d="M1066.954,140.05a18.02,18.02,0,0,1,8.367-3.084v-3.811a17.166,17.166,0,0,0-8.367,6.895Z" transform="translate(-1056.954 -121.378)" fill="#bfbfbf"/>
      <path id="Path_9" data-name="Path 9" d="M1035.381,105.776a17.9,17.9,0,0,1,9.864-8.841V85.958s-18.759,7.082-18.361,17.33h-.006v17.33s.837-.316,2.151-.91c0-.556.013-1.115.059-1.676A18.007,18.007,0,0,1,1035.381,105.776Z" transform="translate(-1026.878 -85.958)" fill="#bfbfbf"/>
      <path id="Path_10" data-name="Path 10" d="M1043.836,180.515a18,18,0,0,1,.656-3.548,16.727,16.727,0,0,0-3.922,9.468c-.027.33-.042.66-.05.989,1.066-.513,2.305-1.151,3.608-1.9A17.893,17.893,0,0,1,1043.836,180.515Z" transform="translate(-1037.115 -154.258)" fill="#bfbfbf"/>
      <path id="Path_11" data-name="Path 11" d="M1056.627,162.933a17.154,17.154,0,0,0,.231,4.543c5.126-3.066,10.886-7.8,10.664-13.531h.006v-.488a16.824,16.824,0,0,0-9.752,4.554A17.13,17.13,0,0,0,1056.627,162.933Z" transform="translate(-1049.16 -136.614)" fill="#bfbfbf"/>
    </g>
  </g>
</svg>
